<svg version="1.1" baseProfile="full" xmlns="http://www.w3.org/2000/svg" xmlns:xlink="http://www.w3.org/1999/xlink" x="0px"
	 y="0px" viewBox="0 0 16 16" enable-background="new 0 0 16 16" xml:space="preserve">
	 <style>
    @media (prefers-color-scheme: dark) {
      .a { fill: #ffffff }
    }
  </style>
<path class="a" d="M0.528,12.009l1.709-8.521h3.027c1.526,0,2.307,0.598,2.307,2.136c0,1.855-1.208,3.198-2.991,3.198H2.835l-0.635,3.187
	H0.528z M3.128,7.358h1.599c0.562,0,0.842-0.281,0.977-0.94c0.098-0.476,0.134-0.671,0.134-0.83c0-0.415-0.159-0.635-0.647-0.635
	H3.617L3.128,7.358z"/>
<path class="a" d="M11.076,8.286l-1.27,1.453l-0.451,2.271H7.683l1.708-8.521h1.673l-0.514,2.563L10.16,7.626h0.172l1.221-1.599l2.051-2.539
	h2.025l-3.223,3.723l1.673,4.797h-1.831L11.076,8.286z"/>
</svg>
